<svg xmlns="http://www.w3.org/2000/svg" xmlns:xlink="http://www.w3.org/1999/xlink" width="309" zoomAndPan="magnify" viewBox="0 0 231.75 52.499999" height="70" preserveAspectRatio="xMidYMid meet" version="1.0"><defs><g/></defs><g fill="#ffffff" fill-opacity="1"><g transform="translate(21.323094, 47.611193)"><g><path d="M 27.21875 -41.8125 L 27.21875 -33.453125 L 12.578125 -33.453125 L 12.578125 -25.140625 L 26.109375 -25.140625 L 26.109375 -16.78125 L 12.578125 -16.78125 L 12.578125 0 L 3.046875 0 L 3.046875 -41.8125 Z M 27.21875 -41.8125 "/></g></g></g><g fill="#ffffff" fill-opacity="1"><g transform="translate(50.059418, 47.611193)"><g><path d="M 12.578125 -41.8125 L 12.578125 0 L 3.046875 0 L 3.046875 -41.8125 Z M 12.578125 -41.8125 "/></g></g></g><g fill="#ffffff" fill-opacity="1"><g transform="translate(65.669278, 47.611193)"><g><path d="M 0.40625 -33.453125 L 0.40625 -41.8125 L 29.796875 -41.8125 L 29.796875 -33.453125 L 19.875 -33.453125 L 19.875 0 L 10.34375 0 L 10.34375 -33.453125 Z M 0.40625 -33.453125 "/></g></g></g><g fill="#009d9a" fill-opacity="1"><g transform="translate(92.569397, 46.214121)"><g><path d="M 29.765625 -17.0625 L 29.765625 -10.453125 C 28.984375 -6.835938 27.257812 -4.097656 24.59375 -2.234375 C 21.9375 -0.378906 18.972656 0.546875 15.703125 0.546875 C 11.585938 0.546875 8.082031 -0.988281 5.1875 -4.0625 C 2.289062 -7.144531 0.84375 -10.863281 0.84375 -15.21875 C 0.84375 -19.644531 2.257812 -23.382812 5.09375 -26.4375 C 7.925781 -29.5 11.460938 -31.03125 15.703125 -31.03125 C 20.648438 -31.03125 24.5625 -29.289062 27.4375 -25.8125 L 22.90625 -20.828125 C 21.28125 -23.441406 19.015625 -24.75 16.109375 -24.75 C 13.960938 -24.75 12.128906 -23.816406 10.609375 -21.953125 C 9.097656 -20.097656 8.34375 -17.851562 8.34375 -15.21875 C 8.34375 -12.632812 9.097656 -10.425781 10.609375 -8.59375 C 12.128906 -6.757812 13.960938 -5.84375 16.109375 -5.84375 C 17.878906 -5.84375 19.421875 -6.375 20.734375 -7.4375 C 22.054688 -8.507812 22.71875 -9.929688 22.71875 -11.703125 L 15.703125 -11.703125 L 15.703125 -17.0625 Z M 29.765625 -17.0625 "/></g></g></g><g fill="#009d9a" fill-opacity="1"><g transform="translate(123.18259, 46.214121)"><g><path d="M 19.65625 -30.46875 L 19.65625 -24.375 L 9.15625 -24.375 L 9.15625 -18.328125 L 19.203125 -18.328125 L 19.203125 -12.21875 L 9.15625 -12.21875 L 9.15625 -6.09375 L 19.65625 -6.09375 L 19.65625 0 L 2.21875 0 L 2.21875 -30.46875 Z M 19.65625 -30.46875 "/></g></g></g><g fill="#009d9a" fill-opacity="1"><g transform="translate(144.600749, 46.214121)"><g><path d="M 9.15625 -18.90625 L 9.15625 0 L 2.21875 0 L 2.21875 -30.46875 L 9.15625 -30.46875 L 21.28125 -11.5625 L 21.34375 -11.5625 L 21.34375 -30.46875 L 28.296875 -30.46875 L 28.296875 0 L 21.34375 0 L 9.234375 -18.90625 Z M 9.15625 -18.90625 "/></g></g></g><g fill="#009d9a" fill-opacity="1"><g transform="translate(175.103168, 46.214121)"><g><path d="M 9.15625 -30.46875 L 9.15625 0 L 2.21875 0 L 2.21875 -30.46875 Z M 9.15625 -30.46875 "/></g></g></g><g fill="#009d9a" fill-opacity="1"><g transform="translate(186.476949, 46.214121)"><g><path d="M 19.65625 -30.46875 L 19.65625 -24.375 L 9.15625 -24.375 L 9.15625 -18.328125 L 19.203125 -18.328125 L 19.203125 -12.21875 L 9.15625 -12.21875 L 9.15625 -6.09375 L 19.65625 -6.09375 L 19.65625 0 L 2.21875 0 L 2.21875 -30.46875 Z M 19.65625 -30.46875 "/></g></g></g></svg>